<?xml version="1.0" encoding="utf-8"?>
<!-- Generator: Adobe Illustrator 22.0.0, SVG Export Plug-In . SVG Version: 6.00 Build 0)  -->
<svg version="1.0" xmlns="http://www.w3.org/2000/svg" xmlns:xlink="http://www.w3.org/1999/xlink" x="0px" y="0px"
	 viewBox="0 0 512 512" style="enable-background:new 0 0 512 512;" xml:space="preserve">
<style type="text/css">
	.st0{fill:#F4F6F9;}
	.st1{fill:#CE281E;}
	.st2{fill:#CA151D;}
	.st3{fill:#184778;}
	.st4{fill:#013E71;}
	.st5{fill:#C8161E;}
	.st6{fill:#0A0403;}
</style>
<g id="图层_1">
	<rect class="st0" width="512" height="512"/>
</g>
<g id="图层_2">
	<g>
		<g>
			<path class="st1" d="M337.4,246.3c0,3.9-0.4,7.7-1.1,11.5c-0.8,3.8-1.9,2.3-3.3,5.8c-4.4,0.6-8.7,1.3-12.8,2.3
				c2-3.9,3.6-2.8,4.6-7.1c0.9-3.8,1.4-7.8,1.4-11.8c0-32.8-31.5-59.4-70.2-59.4s-70.2,26.6-70.2,59.4c0,4.1,0.5,8.1,1.4,11.9
				c1,4.3,2.6,3.3,4.7,7.2c-4.3-1-8.8-1.9-13.4-2.5c-1.5-3.6-2.6-2.1-3.3-5.8c-0.7-3.7-1.1-7.6-1.1-11.5c0-38.2,36.6-69.1,81.7-69.1
				S337.4,208.1,337.4,246.3z"/>
			<path class="st2" d="M192.5,266.7l-0.8-0.2c-4.4-1.1-8.9-1.9-13.3-2.5l-0.2,0l-0.1-0.2c-0.6-1.5-1.2-2.1-1.7-2.6
				c-0.7-0.6-1.2-1.2-1.7-3.4c-0.8-3.8-1.1-7.7-1.1-11.6c0-18.6,8.6-36,24.1-49.2c15.5-13.1,36.1-20.3,58-20.3s42.5,7.2,58,20.3
				c15.5,13.1,24.1,30.6,24.1,49.2c0,3.9-0.4,7.8-1.1,11.6c-0.4,2.2-1,2.7-1.7,3.3c-0.5,0.5-1,1-1.7,2.5l-0.1,0.2l-0.2,0
				c-4.2,0.5-8.6,1.3-12.8,2.3l-0.8,0.2l0.4-0.7c0.9-1.7,1.7-2.5,2.5-3.2c0.9-0.8,1.6-1.5,2.1-3.8c0.9-3.8,1.4-7.8,1.4-11.7
				c0-32.5-31.3-59-69.9-59S186,214.5,186,247c0,4,0.5,8,1.4,11.8c0.6,2.3,1.3,3,2.2,3.8c0.7,0.7,1.6,1.5,2.5,3.2L192.5,266.7z
				 M178.7,263.3c4.1,0.5,8.2,1.3,12.3,2.3c-0.7-1.1-1.3-1.7-1.9-2.3c-1-0.9-1.8-1.7-2.4-4.2c-0.9-3.9-1.4-8-1.4-12
				c0-16,7.4-31,20.7-42.3c13.3-11.3,31.1-17.5,49.9-17.5s36.6,6.2,49.9,17.5c13.4,11.3,20.7,26.3,20.7,42.3c0,4-0.5,8-1.4,11.9
				c-0.6,2.5-1.4,3.3-2.3,4.2c-0.6,0.5-1.2,1.1-1.9,2.2c3.9-0.9,7.9-1.6,11.8-2.1c0.7-1.5,1.3-2.1,1.8-2.6c0.6-0.6,1-1,1.4-2.9
				c0.7-3.7,1.1-7.6,1.1-11.4c0-37.9-36.5-68.7-81.4-68.7s-81.4,30.8-81.4,68.7c0,3.8,0.4,7.7,1.1,11.4c0.4,1.9,0.9,2.4,1.4,3
				C177.4,261.2,178,261.7,178.7,263.3z"/>
		</g>
		<g>
			<polygon points="355.2,258.9 355.2,258.9 355.2,258.7 355.2,258.7 			"/>
		</g>
		<g>
			<path class="st3" d="M255.4,287.8c-0.4-0.4-0.9-0.7-1.3-1.1c-0.5-0.4-1.1-0.8-1.7-1.3c-0.7-0.5-1.4-1-2-1.5
				c-0.8-0.6-1.6-1.1-2.4-1.7c-0.9-0.6-1.9-1.2-2.8-1.8c-1-0.7-2.1-1.3-3.1-1.9c-1.2-0.7-2.3-1.4-3.5-2c-1.3-0.7-2.5-1.4-3.8-2.1
				c-1.4-0.7-2.8-1.4-4.2-2.1c-1.5-0.7-3-1.4-4.5-2.1c-1.6-0.7-3.2-1.4-4.8-2c-1.7-0.7-3.4-1.3-5.1-1.9c-1.8-0.6-3.6-1.2-5.4-1.8
				c-1.9-0.6-3.8-1.1-5.6-1.7c-2-0.5-3.9-1-5.9-1.5c-2-0.5-4.1-0.9-6.2-1.3c-2.1-0.4-4.3-0.7-6.4-1c-2.2-0.3-4.4-0.5-6.7-0.7
				c-2.3-0.2-4.6-0.3-6.9-0.4c-2.4-0.1-4.7-0.1-7.1-0.1c-2.4,0-4.9,0.1-7.3,0.3c-2.5,0.2-5,0.4-7.5,0.7c-2.6,0.3-5.1,0.7-7.7,1.1
				c-2.6,0.5-5.3,1-7.9,1.6c-0.6,0.1-1.1,0.3-1.7,0.4c-64.6,16-88.9,59-88.9,59s34.7-38.2,97.1-50.7
				c57.7-11.6,105.7,27.4,112.7,33.5c0.5,0.4,1.3,0.4,1.8,0c7-6.1,55.1-45.1,112.7-33.5c62.4,12.6,97.1,50.7,97.1,50.7
				s-24.3-42.9-88.9-59c-2.6-0.6-5.2-1.2-7.9-1.7c-2.6-0.5-5.1-0.9-7.7-1.2c-2.5-0.3-5-0.6-7.5-0.8c-2.4-0.2-4.9-0.3-7.3-0.4
				c-2.4-0.1-4.8-0.1-7.1,0c-2.3,0.1-4.6,0.2-6.9,0.4c-2.2,0.2-4.5,0.4-6.7,0.7c-2.2,0.3-4.3,0.6-6.5,1c-2.1,0.4-4.2,0.8-6.2,1.2
				c-2,0.4-4,0.9-6,1.4c-1.9,0.5-3.8,1-5.7,1.6c-1.8,0.6-3.6,1.1-5.4,1.8c-1.7,0.6-3.4,1.2-5.1,1.9c-1.6,0.6-3.2,1.3-4.9,2
				c-1.5,0.7-3,1.3-4.5,2c-1.4,0.7-2.8,1.4-4.2,2.1c-1.3,0.7-2.6,1.4-3.9,2.1c-1.2,0.7-2.4,1.3-3.6,2c-1.1,0.6-2.2,1.3-3.2,1.9
				c-1,0.6-1.9,1.2-2.9,1.8c-0.8,0.6-1.7,1.1-2.5,1.7c-0.7,0.5-1.4,1-2.1,1.5c-0.6,0.4-1.2,0.9-1.7,1.3c-0.5,0.4-0.9,0.7-1.3,1.1
				c-0.1,0.1-0.2,0.2-0.3,0.3C256.1,288,255.7,288,255.4,287.8L255.4,287.8z"/>
			<path class="st4" d="M468.7,324l-2.3-2.6c-0.1-0.1-8.8-9.6-25.1-20.6c-15-10.1-39.6-23.5-71.8-30c-24.2-4.9-49.5-1.5-75.1,10.1
				c-19.9,9-33.6,20.1-37.3,23.3c-0.7,0.6-1.6,0.6-2.3,0c-3.7-3.2-17.4-14.3-37.3-23.3c-25.6-11.6-50.9-15-75.1-10.1
				c-32.2,6.5-56.8,19.9-71.8,30c-16.3,11-25,20.5-25.1,20.6l-2.3,2.6l1.7-3c0.1-0.1,6.3-10.9,20.3-23.6c8.2-7.4,17.5-14,27.6-19.6
				c12.6-7,26.5-12.4,41.2-16c0.6-0.1,1.1-0.3,1.7-0.4c2.6-0.6,5.3-1.2,7.9-1.6c2.6-0.5,5.1-0.8,7.7-1.1c2.5-0.3,5-0.5,7.5-0.7
				c2.4-0.2,4.9-0.3,7.3-0.3c2.4,0,4.8,0,7.1,0.1c2.3,0.1,4.6,0.2,6.9,0.4c2.2,0.2,4.5,0.4,6.7,0.7c2.1,0.3,4.3,0.6,6.4,1
				c2.1,0.4,4.1,0.8,6.2,1.3c2,0.5,4,0.9,5.9,1.5c1.9,0.5,3.8,1.1,5.7,1.7c1.8,0.6,3.6,1.2,5.4,1.8c1.7,0.6,3.4,1.3,5.1,1.9
				c1.6,0.6,3.2,1.3,4.8,2c1.5,0.7,3,1.4,4.5,2.1c1.4,0.7,2.8,1.4,4.2,2.1c1.3,0.7,2.6,1.4,3.8,2.1c1.2,0.7,2.4,1.3,3.5,2
				c1.1,0.6,2.1,1.3,3.2,1.9c0.9,0.6,1.9,1.2,2.8,1.8c0.8,0.5,1.6,1.1,2.4,1.7c0.7,0.5,1.4,1,2,1.5c0.6,0.4,1.1,0.9,1.7,1.3
				c0.4,0.3,0.9,0.7,1.3,1.1l0,0c0.1,0.1,0.3,0.1,0.4,0c0.1-0.1,0.2-0.2,0.3-0.3c0.4-0.3,0.9-0.7,1.4-1.1c0.6-0.4,1.1-0.9,1.7-1.3
				c0.7-0.5,1.4-1,2.1-1.5c0.8-0.6,1.7-1.1,2.5-1.7c0.9-0.6,1.9-1.2,2.9-1.8c1.1-0.7,2.1-1.3,3.2-1.9c1.2-0.7,2.4-1.4,3.6-2
				c1.3-0.7,2.6-1.4,3.9-2.1c1.4-0.7,2.8-1.4,4.2-2.1c1.5-0.7,3-1.4,4.6-2c1.6-0.7,3.2-1.4,4.9-2c1.7-0.7,3.4-1.3,5.2-1.9
				c1.8-0.6,3.6-1.2,5.4-1.8c1.9-0.6,3.8-1.1,5.7-1.6c2-0.5,4-1,6-1.4c2.1-0.4,4.2-0.9,6.2-1.2c2.1-0.4,4.3-0.7,6.5-1
				c2.2-0.3,4.5-0.5,6.7-0.7c2.3-0.2,4.6-0.3,6.9-0.4c2.4-0.1,4.8-0.1,7.2,0c2.4,0.1,4.9,0.2,7.4,0.4c2.5,0.2,5.1,0.5,7.6,0.8
				c2.6,0.3,5.2,0.8,7.7,1.2c2.6,0.5,5.3,1.1,7.9,1.7c14.8,3.7,28.6,9.1,41.2,16c10.1,5.6,19.4,12.2,27.6,19.6
				c14,12.6,20.2,23.5,20.3,23.6L468.7,324z M168,258.4c-0.6,0-1.3,0-1.9,0c-2.4,0-4.9,0.1-7.3,0.3c-2.5,0.2-5,0.4-7.5,0.7
				c-2.5,0.3-5.1,0.7-7.7,1.1c-2.6,0.5-5.2,1-7.8,1.6c-0.6,0.1-1.1,0.3-1.7,0.4c-33.3,8.3-55.6,23.8-68.5,35.4
				c-9.5,8.5-15.3,16.2-18.1,20.3c3.7-3.6,11.4-10.5,22.6-18.1c15.1-10.2,39.8-23.6,72.1-30.1c13.3-2.7,27.1-2.9,41.1-0.5
				c11.4,1.9,23,5.5,34.5,10.7c20,9,33.7,20.2,37.5,23.4c0.4,0.3,0.9,0.3,1.3,0c3.7-3.2,17.4-14.4,37.5-23.4
				c11.5-5.2,23.1-8.8,34.5-10.7c14-2.3,27.8-2.2,41.1,0.5c32.3,6.5,57.1,20,72.1,30.1c11.2,7.6,18.9,14.4,22.6,18.1
				c-2.8-4.1-8.7-11.8-18.2-20.3c-12.9-11.6-35.2-27.1-68.5-35.4c-2.6-0.6-5.3-1.2-7.9-1.7c-2.6-0.5-5.1-0.9-7.7-1.2
				c-2.5-0.3-5-0.6-7.5-0.8c-2.4-0.2-4.9-0.3-7.3-0.4c-2.4-0.1-4.8-0.1-7.1,0c-2.3,0.1-4.6,0.2-6.9,0.4c-2.2,0.2-4.5,0.4-6.7,0.7
				c-2.1,0.3-4.3,0.6-6.4,1c-2.1,0.4-4.2,0.8-6.2,1.2c-2,0.4-4,0.9-6,1.4c-1.9,0.5-3.8,1-5.7,1.6c-1.8,0.6-3.6,1.1-5.4,1.8
				c-1.7,0.6-3.4,1.2-5.1,1.9c-1.6,0.6-3.2,1.3-4.8,2c-1.5,0.7-3,1.3-4.5,2c-1.4,0.7-2.8,1.4-4.2,2.1c-1.3,0.7-2.6,1.4-3.9,2.1
				c-1.2,0.7-2.4,1.3-3.6,2c-1.1,0.6-2.2,1.3-3.2,1.9c-1,0.6-1.9,1.2-2.9,1.8c-0.9,0.6-1.7,1.1-2.5,1.7c-0.7,0.5-1.4,1-2.1,1.5
				c-0.6,0.5-1.2,0.9-1.7,1.3c-0.5,0.4-0.9,0.7-1.3,1.1c-0.1,0.1-0.2,0.2-0.3,0.3c-0.4,0.4-1,0.4-1.4,0l0.3-0.3l-0.3,0.3
				c-0.4-0.4-0.9-0.7-1.3-1.1c-0.5-0.4-1.1-0.8-1.6-1.3c-0.6-0.5-1.3-1-2-1.5c-0.8-0.6-1.6-1.1-2.4-1.6c-0.9-0.6-1.8-1.2-2.8-1.8
				c-1-0.6-2.1-1.3-3.1-1.9c-1.1-0.7-2.3-1.3-3.5-2c-1.3-0.7-2.5-1.4-3.8-2c-1.4-0.7-2.8-1.4-4.1-2.1c-1.5-0.7-3-1.4-4.5-2
				c-1.6-0.7-3.2-1.4-4.8-2c-1.7-0.7-3.4-1.3-5.1-1.9c-1.8-0.6-3.6-1.2-5.4-1.8c-1.9-0.6-3.8-1.1-5.6-1.7c-1.9-0.5-3.9-1-5.9-1.5
				c-2-0.5-4.1-0.9-6.2-1.3c-2.1-0.4-4.3-0.7-6.4-1c-2.2-0.3-4.4-0.5-6.6-0.7c-2.3-0.2-4.6-0.3-6.9-0.4
				C171.5,258.4,169.7,258.4,168,258.4z"/>
		</g>
		<g>
			<path class="st5" d="M151.9,235.5c0,2.1,0,3.6,0.1,4.6l-1.9,0.8v-2.1h-5.9v2.4l-1.9,0.8c0.1-2.4,0.1-5.4,0.1-9.1
				c0-3.7,0-6.7-0.1-9l1.9,0.9h5.7l1-1.1l2,1.5l-1.1,0.7V235.5z M144.3,225.5v5.8h5.9v-5.8H144.3z M144.3,232.1v6h5.9v-6H144.3z
				 M147,248.8c2.2-1.2,4-2.5,5.4-3.9c1.4-1.4,2.4-2.9,2.9-4.4c0.5-1.5,0.8-4,0.9-7.6c0-3.6,0-7.2-0.1-10.8l1.9,1.2h7.5l1.1-1.2
				l2.2,1.4l-1.1,0.7v21.6c0.1,1.4-1,2.5-3.1,3.2c0-1.1-1.5-2-4.6-2.7v-0.6c2.3,0.4,3.8,0.6,4.7,0.5c0.9,0,1.3-0.5,1.3-1.2v-7.2
				h-8.1c-0.3,2.8-1.4,5.2-3.5,7.1c-2,1.9-4.4,3.3-7.2,4.4L147,248.8z M158.1,230.9c0,2.1,0,4.2-0.1,6h8.1v-6H158.1z M158.1,223.9
				v6.3h7.9v-6.3H158.1z"/>
		</g>
		<g>
			<path class="st5" d="M347.5,221l2.3,1.8c-0.9,0.2-2.1,1-3.4,2.4c-1.4,1.4-2.5,2.4-3.3,3.1l9.7-0.2c-0.8-1.3-1.5-2.4-2.2-3.1
				l0.3-0.4c1.4,0.8,2.5,1.5,3.3,2.2c0.8,0.7,1.1,1.3,1.1,1.9c0,0.6-0.3,1.1-0.8,1.5c-0.5,0.4-0.8,0.4-0.9-0.1
				c-0.1-0.4-0.3-1-0.6-1.6c-1.4,0.2-3.4,0.4-5.8,0.6c-2.5,0.2-4.1,0.6-4.8,1.2l-1.3-2.3c0.8,0,2-0.8,3.4-2.5
				C345.9,224,346.9,222.4,347.5,221z M342.7,248.7c0.1-1.7,0.1-4.7,0.1-9.1c0-4.4,0-7.2-0.1-8.4l1.9,0.9h6.5l1-1.2l1.9,1.5l-1,0.8
				v12.1c0.2,1.5-0.7,2.6-2.5,3.3c-0.1-1-1.2-1.8-3.3-2.4v-0.5c1.6,0.2,2.7,0.2,3.3,0.2c0.6,0,0.9-0.4,0.9-1.3v-4.1h-6.7v7.1
				L342.7,248.7z M344.6,232.8v3h6.7v-3H344.6z M344.6,236.5v3.4h6.7v-3.4H344.6z M356.9,245.7c0-6.2,0-9.7-0.1-10.7l2.9,1.3
				l-1.1,0.8v3.8c3-1.5,5.2-3.2,6.6-5.1l2,2.3h-1.1c-2.8,1.4-5.3,2.6-7.5,3.6v3c0,1.3,0.6,1.9,1.9,1.8h5c0.9-0.1,1.4-0.6,1.5-1.6
				c0-1,0.1-2.1,0.2-3.3h0.5c0.1,1.3,0.2,2.4,0.4,3.1c0.2,0.8,0.7,1.2,1.3,1.4c-0.4,1.1-1.7,1.7-3.8,1.8h-5.8
				C357.9,247.8,357,247.1,356.9,245.7z M357.3,231.3c0-5.5,0-8.7-0.1-9.6l2.9,1.2l-1.1,0.9v4.2c2.6-1.3,4.6-2.7,5.8-4.3l1.9,2
				l-1.1,0.1c-2.5,1.2-4.7,2.1-6.6,2.7v2.3c0,0.9,0.6,1.3,1.9,1.3h4.3c0.8-0.1,1.3-0.5,1.4-1.2c0.1-0.8,0.1-1.8,0.1-3h0.5
				c0.1,0.9,0.2,1.8,0.4,2.5c0.2,0.8,0.6,1.2,1.4,1.5c-0.5,1-1.7,1.5-3.7,1.5H360C358.2,233.5,357.3,232.8,357.3,231.3z"/>
		</g>
		<g>
			<g>
				<path class="st6" d="M180.4,195.2c0.3,0.2,0.7,0.2,1-0.1c0.4-0.2,0.7-0.6,1.1-1.2l0.5-0.8l0.7,0.4l-5.2,8.4l-0.7-0.4l0.6-1
					c0.4-0.6,0.6-1.1,0.6-1.5c0-0.4-0.2-0.6-0.5-0.8l-15.4-9.7l-0.2,0.4l13,17.2l-0.7,1.1l-20.4-4.6l-0.2,0.4l15.1,9.4
					c0.3,0.2,0.6,0.2,1,0c0.4-0.2,0.7-0.6,1-1.1l0.4-0.6l0.7,0.4l-3.6,5.7l-0.7-0.4l0.4-0.6c0.4-0.6,0.6-1.1,0.6-1.5
					c0-0.4-0.2-0.6-0.5-0.8L152,203.1c-0.3-0.2-0.6-0.2-0.9-0.1c-0.3,0.1-0.6,0.5-1,1.1l-0.4,0.7l-0.7-0.4l3.3-5.3l18.7,4.2l0.2-0.4
					l-11.7-15.4l4.1-6.5l0.7,0.4l-0.5,0.8c-0.3,0.5-0.5,1-0.6,1.5c-0.1,0.4,0.1,0.8,0.4,1L180.4,195.2z"/>
			</g>
		</g>
		<g>
			<g>
				<path class="st6" d="M193.6,159.3l-0.4-0.7l14-8.2l3.9,3.7l-0.6,0.6c-1.4-0.8-2.7-1.7-3.9-1.8c-1.2-0.1-2.3,0.1-3.3,0.7
					l-3.9,2.2c-0.4,0.2-0.6,0.5-0.8,0.8c-0.1,0.3-0.1,0.6,0.1,0.9l5.1,8.3l3.6-2.3c0.9-0.5,1.5-1.1,1.7-1.7c0.2-0.6,0-1.4-0.4-2.2
					l-0.4-0.7l0.8-0.5l4,7l-0.8,0.5l-0.3-0.5c-0.5-0.8-1.1-1.4-1.7-1.6c-0.7-0.2-1.5-0.1-2.4,0.4l-3.6,2.3l4.3,8.2
					c0.2,0.3,0.4,0.5,0.8,0.5c0.3,0,0.7-0.1,1-0.3l3.6-2.1c1.4-0.8,3.2-2.2,3.8-3.5c0.6-1.2,0.3-2.7,0-4.5l0.8-0.2l1.6,5.6
					l-15.3,8.9l-0.4-0.7l0.8-0.4c0.4-0.2,0.7-0.5,0.8-0.8c0.1-0.3,0-0.5-0.2-0.9l-9.9-17.2c-0.2-0.3-0.4-0.5-0.7-0.6
					c-0.3-0.1-0.6,0-1.1,0.3L193.6,159.3z"/>
			</g>
		</g>
		<g>
			<g>
				<path class="st6" d="M262.8,143.8l0.1-0.8l17,1.7l1,4.9l-0.9,0.2c-0.8-1.5-1.2-2.6-2.1-3.4c-0.9-0.8-2-1.3-3.3-1.4l-4.7-0.5
					c-0.5,0-0.8,0-1.1,0.2c-0.3,0.2-0.5,0.4-0.5,0.8l-0.9,8.6l4.5,0.5c1.1,0.1,2,0,2.5-0.4c0.6-0.4,0.9-1.1,1-2l0.1-0.8l1,0.1
					l-0.8,8l-1-0.1l0.1-0.5c0.1-1-0.1-1.8-0.5-2.3c-0.5-0.6-1.2-0.9-2.4-1l-4.5-0.5l-1.1,10.4c0,0.4,0.1,0.7,0.3,0.9
					c0.3,0.2,0.6,0.3,1.1,0.4l4.4,0.4c1.7,0.2,3.2-0.1,4.4-0.7c1.3-0.7,1.9-2.2,2.7-3.8l0.8,0.4l-2,5.6l-17.6-1.7l0.1-0.8l0.9,0.1
					c0.5,0.1,0.9,0,1.1-0.2c0.2-0.2,0.4-0.4,0.4-0.8l2-19.8c0-0.4,0-0.7-0.3-0.9c-0.2-0.2-0.6-0.3-1.2-0.4L262.8,143.8z"/>
			</g>
		</g>
		<g>
			<g>
				<path class="st6" d="M246.1,159.4l0.4-0.1l-1.8-15.2c-0.1-0.4-0.2-0.6-0.5-0.8c-0.3-0.1-0.8-0.2-1.5-0.1l-1.6,0.3l-0.1-0.8
					l8.1-1.3l0.1,0.8l-1.6,0.3c-0.5,0.1-1,0.2-1.3,0.5c-0.3,0.2-0.4,0.5-0.4,0.9l2.7,21.1l-1.2,0.2l0.1,0l-18.8-16.7l-0.4,0.1
					l3.1,18.1c0.1,0.4,0.3,0.6,0.6,0.7c0.4,0.1,0.8,0.2,1.4,0.1l1.6-0.3l0.1,0.8l-8.1,1.3l-0.1-0.8l1.6-0.3c0.7-0.1,1.1-0.3,1.4-0.5
					c0.2-0.2,0.3-0.5,0.3-0.9l-3.3-19.2c-0.1-0.4-0.3-0.6-0.6-0.8c-0.3-0.1-0.9-0.1-1.6,0l-1.4,0.2l-0.1-0.8l6.8-1.4L246.1,159.4z"
					/>
			</g>
		</g>
		<g>
			<g>
				<path class="st6" d="M311.1,163.1c-1,1.6-2.2,2.5-3.8,2.7c-1.6,0.2-3.1,0-4.6-0.7l1.1,11.9c0,0.4,0.1,0.8,0.3,1
					c0.2,0.3,0.4,0.5,0.7,0.7l0.9,0.5l-0.4,0.7l-4-2.5l-1-13.7l-3.1-1.9l-5.2,8.5c-0.2,0.3-0.2,0.6-0.1,0.9c0.1,0.3,0.4,0.6,0.7,0.8
					l0.8,0.5l-0.4,0.7l-6.8-4.3l0.4-0.7l0.8,0.5c0.4,0.3,0.8,0.4,1.1,0.3c0.3,0,0.5-0.2,0.7-0.5l9.9-16.5c0.2-0.3,0.2-0.6,0.2-0.9
					c-0.1-0.3-0.3-0.5-0.8-0.8l-0.8-0.5l0.4-0.7l9,5c2.2,1.3,3.6,2.8,4.4,4.3C312.2,159.9,312,161.5,311.1,163.1z M297.6,161.2
					l3.1,1.9c1.4,0.9,2.8,1.2,4.2,1.1c1.4-0.1,2.5-1,3.4-2.5c0.8-1.3,1-2.7,0.6-3.9c-0.4-1.3-1.5-2.5-3.3-3.6l-1.6-1
					c-0.4-0.2-0.7-0.3-1.1-0.3c-0.3,0-0.6,0.2-0.8,0.5L297.6,161.2z"/>
			</g>
		</g>
		<g>
			<g>
				<path class="st6" d="M336.4,173.7c-1.3-1.4-3.7-2.4-6.1-2.1c-2.5,0.2-5.1,1.7-7.9,4.5c-1.9,1.8-3.2,4-4.1,6.5
					c-0.8,2.5-0.3,4.7,1.7,6.7c1,1,1.9,1.6,2.8,1.9c0.9,0.3,1.7,0.2,2.4-0.3l3.4-3.4c0.4-0.4,0.6-0.8,0.5-1.3
					c-0.1-0.5-0.4-1-0.9-1.5l-0.8-0.8l0.6-0.6l7.1,6.8l-0.6,0.6l-0.7-0.7c-0.4-0.5-0.9-0.7-1.4-0.8c-0.5-0.1-0.9,0-1.2,0.4l-5,4.9
					c-0.1-0.2-0.2-0.5-0.3-0.6c-0.1-0.2-0.2-0.3-0.4-0.5c-0.2-0.2-0.4-0.3-0.6-0.5c-0.2-0.1-0.9-0.2-1.2-0.3c-0.9-0.2-1.6-0.6-2.4-1
					c-0.7-0.5-1.4-1-2.1-1.8c-2.7-2.7-3.7-5.5-3.2-8.5c0.5-3,1.8-5.5,3.9-7.6c2.4-2.4,5.3-3.7,8.5-4c3.2-0.2,6.3,1.2,8.5,3.4
					c0.5,0.5,1,1.3,1.5,2.2c0.5,0.9,0.8,2.3,1,2.5c0.3,0.3,0.6,0.5,0.9,0.7c0.4,0.2,0.7,0.2,1.1,0.2l-4.2,4.7l-1-0.6
					c0.9-1.9,2.1-3.6,2-5.1C338.2,176.2,337.5,174.9,336.4,173.7z"/>
			</g>
		</g>
		<g>
			<g>
				<path class="st6" d="M358.3,204.4c0.5-0.2,0.8-0.5,0.9-0.9c0.1-0.4-0.1-1-0.6-1.7l-0.2-0.3l0.7-0.4l3.9,6.3l-0.7,0.4l-0.3-0.5
					c-0.3-0.5-0.8-0.9-1.3-1.2c-0.5-0.3-1.2-0.4-1.9-0.4l-13.2-0.1l-6.9,4.2c-0.3,0.2-0.5,0.5-0.5,0.8c0,0.4,0.1,0.8,0.4,1.2
					l0.9,1.4l-0.7,0.4l-5-8.2l0.7-0.4l0.9,1.4c0.3,0.5,0.6,0.8,0.9,1c0.3,0.1,0.6,0.1,0.9-0.1l6.6-3.3l7.1-11.9
					c0.3-0.5,0.4-0.9,0.5-1.4c0-0.5-0.1-1-0.4-1.5l-0.2-0.3l0.7-0.4l4.3,7.1l-0.7,0.4l-0.6-1c-0.4-0.6-0.7-0.9-1-0.9
					c-0.3,0-0.6,0.3-1,0.8l-5.3,8.8l0.2,0.3L358.3,204.4z"/>
			</g>
		</g>
		<g>
			<g>
				<path class="st6" d="M185,183.5c-0.4,0-0.7-0.2-1-0.5c-0.5-0.5-0.4-1.4,0.1-1.8l6.1-5.2c0.5-0.5,1.4-0.4,1.8,0.1
					c0.5,0.5,0.4,1.4-0.1,1.8l-6.1,5.2C185.6,183.4,185.3,183.5,185,183.5z"/>
			</g>
		</g>
	</g>
</g>
</svg>
