<?xml version="1.0" encoding="utf-8"?>
<!-- Generator: Adobe Illustrator 22.0.0, SVG Export Plug-In . SVG Version: 6.00 Build 0)  -->
<svg version="1.0" id="图层_1" xmlns="http://www.w3.org/2000/svg" xmlns:xlink="http://www.w3.org/1999/xlink" x="0px" y="0px"
	 viewBox="0 0 512 512" style="enable-background:new 0 0 512 512;" xml:space="preserve">
<style type="text/css">
	.st0{display:none;}
	.st1{display:inline;fill:#F4F6F9;}
	.st2{fill:#FFFFFF;}
</style>
<g id="图层_1_1_" class="st0">
	<rect class="st1" width="512" height="512"/>
</g>
<g id="图层_2_1_">
	<g>
		<g>
			<path class="st2" d="M347.1,247.9c0,4.4-0.4,8.7-1.3,12.8c-0.8,4.2-2.1,2.5-3.7,6.5c-4.9,0.6-9.7,1.5-14.4,2.6
				c2.3-4.3,4-3.1,5.2-7.9c1-4.3,1.6-8.7,1.6-13.2c0-36.7-35.2-66.5-78.6-66.5s-78.6,29.8-78.6,66.5c0,4.6,0.5,9,1.6,13.3
				c1.2,4.8,2.9,3.6,5.3,8c-4.8-1.2-9.8-2.1-15-2.8c-1.6-4-2.9-2.3-3.7-6.5s-1.3-8.5-1.3-12.9c0-42.7,41-77.4,91.5-77.4
				S347.1,205.2,347.1,247.9z"/>
			<path class="st2" d="M185,270.8l-0.9-0.2c-4.9-1.2-10-2.1-14.9-2.8H169l-0.1-0.2c-0.7-1.7-1.3-2.3-1.9-2.9
				c-0.7-0.7-1.4-1.3-1.9-3.8c-0.8-4.3-1.3-8.6-1.3-13c0-20.8,9.6-40.3,26.9-55c17.4-14.7,40.4-22.8,65-22.8s47.6,8.1,65,22.8
				s26.9,34.2,26.9,55c0,4.3-0.4,8.7-1.3,12.9c-0.5,2.4-1.1,3-1.8,3.7c-0.6,0.5-1.2,1.1-1.9,2.8l-0.1,0.2h-0.3
				c-4.7,0.6-9.6,1.5-14.3,2.6l-0.9,0.2l0.4-0.8c1-2,1.9-2.8,2.8-3.6c1-0.9,1.8-1.6,2.4-4.2c1-4.3,1.5-8.7,1.5-13.1
				c0-36.4-35.1-66-78.2-66s-78.2,29.6-78.2,66c0,4.5,0.5,8.9,1.6,13.2c0.6,2.6,1.4,3.4,2.4,4.3c0.8,0.8,1.8,1.7,2.8,3.6L185,270.8z
				 M169.5,266.9c4.6,0.6,9.2,1.4,13.8,2.5c-0.8-1.3-1.5-1.9-2.1-2.5c-1.1-1-2-1.9-2.7-4.7c-1.1-4.4-1.6-8.9-1.6-13.4
				c0-17.9,8.2-34.7,23.2-47.3c14.9-12.6,34.8-19.6,55.9-19.6s40.9,7,55.9,19.6c14.9,12.6,23.2,29.5,23.2,47.3c0,4.5-0.5,9-1.6,13.3
				c-0.7,2.8-1.6,3.7-2.6,4.7c-0.6,0.6-1.3,1.3-2.1,2.5c4.4-1,8.8-1.8,13.2-2.3c0.7-1.7,1.4-2.4,2-2.9c0.7-0.6,1.2-1.1,1.6-3.3
				c0.8-4.2,1.2-8.5,1.2-12.8c0-42.4-40.8-76.9-91-76.9s-91,34.5-91,76.9c0,4.3,0.4,8.6,1.3,12.8c0.4,2.2,1,2.7,1.6,3.3
				C168,264.5,168.7,265.2,169.5,266.9z"/>
		</g>
		<g>
			<polygon class="st2" points="367.1,262 367,262 367,261.7 367.1,261.8 			"/>
		</g>
		<g>
			<path class="st2" d="M255.4,294.4c-0.5-0.4-1-0.8-1.5-1.2c-0.6-0.5-1.2-0.9-1.8-1.4c-0.8-0.6-1.5-1.1-2.3-1.6
				c-0.9-0.6-1.8-1.2-2.7-1.9c-1-0.7-2.1-1.4-3.1-2c-1.2-0.7-2.3-1.4-3.5-2.1c-1.3-0.8-2.6-1.5-3.9-2.2c-1.4-0.8-2.8-1.6-4.3-2.3
				c-1.5-0.8-3.1-1.6-4.7-2.3c-1.7-0.8-3.3-1.6-5-2.3c-1.8-0.8-3.6-1.5-5.4-2.2c-1.9-0.8-3.8-1.5-5.7-2.1c-2-0.7-4-1.4-6-2
				c-2.1-0.7-4.2-1.3-6.3-1.9c-2.2-0.6-4.4-1.1-6.6-1.7c-2.3-0.5-4.6-1-6.9-1.4c-2.4-0.4-4.8-0.8-7.2-1.1c-2.5-0.3-5-0.6-7.4-0.8
				c-2.6-0.2-5.1-0.4-7.7-0.5c-2.6-0.1-5.3-0.1-7.9-0.1c-2.7,0-5.5,0.1-8.2,0.3c-2.8,0.2-5.6,0.4-8.4,0.8c-2.9,0.3-5.7,0.8-8.6,1.3
				c-2.9,0.5-5.9,1.1-8.8,1.8c-0.6,0.2-1.3,0.3-1.9,0.5c-72.3,18-99.5,66-99.5,66s38.8-42.7,108.7-56.8
				c64.5-13,118.3,30.7,126.2,37.5c0.6,0.5,1.4,0.5,2,0c7.9-6.8,61.6-50.5,126.2-37.5c69.9,14.1,108.7,56.8,108.7,56.8
				s-27.2-48-99.5-66c-2.9-0.7-5.9-1.4-8.8-1.9s-5.7-1-8.6-1.4c-2.8-0.4-5.6-0.7-8.4-0.9c-2.7-0.2-5.5-0.4-8.2-0.4
				c-2.7-0.1-5.3-0.1-8,0c-2.6,0.1-5.2,0.2-7.7,0.4c-2.5,0.2-5,0.4-7.5,0.8c-2.4,0.3-4.8,0.7-7.2,1.1c-2.3,0.4-4.7,0.9-7,1.4
				c-2.2,0.5-4.5,1-6.7,1.6c-2.1,0.6-4.3,1.2-6.4,1.8c-2,0.6-4.1,1.3-6.1,2c-1.9,0.7-3.9,1.4-5.8,2.1c-1.8,0.7-3.6,1.5-5.4,2.2
				c-1.7,0.7-3.4,1.5-5.1,2.3c-1.6,0.7-3.2,1.5-4.7,2.3c-1.5,0.7-2.9,1.5-4.4,2.3c-1.3,0.7-2.7,1.5-4,2.3c-1.2,0.7-2.4,1.4-3.6,2.2
				c-1.1,0.7-2.1,1.4-3.2,2c-0.9,0.6-1.9,1.2-2.8,1.9c-0.8,0.6-1.6,1.1-2.4,1.7c-0.7,0.5-1.3,1-1.9,1.5c-0.5,0.4-1,0.8-1.5,1.2
				c-0.1,0.1-0.2,0.2-0.4,0.3C256.1,294.6,255.7,294.6,255.4,294.4L255.4,294.4z"/>
			<path class="st2" d="M494,334.9l-2.6-2.9c-0.1-0.1-9.9-10.8-28.1-23.1c-16.8-11.3-44.4-26.3-80.4-33.6
				c-27.1-5.5-55.4-1.7-84.1,11.3c-22.3,10.1-37.6,22.5-41.7,26.1c-0.7,0.6-1.8,0.6-2.5,0c-4.1-3.6-19.4-16-41.7-26.1
				c-28.7-12.9-57-16.7-84.1-11.3c-36,7.3-63.6,22.3-80.4,33.6c-18.2,12.3-28,23-28.1,23.1l-2.6,2.9l1.9-3.4
				c0.1-0.1,7-12.2,22.7-26.4c9.2-8.3,19.6-15.7,30.9-21.9c14.1-7.8,29.6-13.8,46.2-17.9c0.6-0.2,1.3-0.3,1.9-0.5
				c2.9-0.7,5.9-1.3,8.8-1.8s5.8-0.9,8.6-1.3c2.8-0.3,5.6-0.6,8.4-0.8c2.7-0.2,5.5-0.3,8.2-0.3c2.6,0,5.3,0,8,0.1
				c2.6,0.1,5.2,0.3,7.7,0.5s5,0.5,7.5,0.8c2.4,0.3,4.8,0.7,7.2,1.1c2.3,0.4,4.6,0.9,6.9,1.4c2.2,0.5,4.4,1.1,6.6,1.7
				c2.1,0.6,4.2,1.2,6.3,1.9c2,0.6,4,1.3,6,2c1.9,0.7,3.8,1.4,5.7,2.2c1.8,0.7,3.6,1.5,5.4,2.2c1.7,0.7,3.4,1.5,5,2.3
				c1.6,0.7,3.1,1.5,4.7,2.3c1.4,0.7,2.9,1.5,4.3,2.3c1.3,0.7,2.6,1.5,3.9,2.2c1.2,0.7,2.4,1.4,3.5,2.2c1.1,0.7,2.1,1.3,3.1,2
				c0.9,0.6,1.8,1.2,2.7,1.9c0.8,0.6,1.6,1.1,2.3,1.7c0.7,0.5,1.3,1,1.9,1.4c0.5,0.4,1,0.8,1.5,1.2l0,0c0.1,0.1,0.3,0.1,0.4,0
				c0.1-0.1,0.2-0.2,0.4-0.3c0.5-0.4,1-0.8,1.5-1.2c0.6-0.5,1.3-1,2-1.5c0.8-0.6,1.6-1.1,2.4-1.7c0.9-0.6,1.8-1.3,2.8-1.9
				c1-0.7,2.1-1.4,3.2-2.1c1.2-0.7,2.4-1.5,3.6-2.2c1.3-0.8,2.7-1.5,4-2.3c1.4-0.8,2.9-1.6,4.4-2.3c1.6-0.8,3.2-1.6,4.7-2.3
				c1.7-0.8,3.4-1.6,5.1-2.3c1.8-0.8,3.6-1.5,5.4-2.2c1.9-0.7,3.8-1.5,5.8-2.1c2-0.7,4.1-1.4,6.1-2c2.1-0.6,4.3-1.3,6.4-1.8
				c2.2-0.6,4.5-1.1,6.7-1.6c2.3-0.5,4.7-1,7-1.4c2.4-0.4,4.8-0.8,7.3-1.1c2.5-0.3,5-0.6,7.5-0.8c2.6-0.2,5.2-0.3,7.8-0.4
				c2.7-0.1,5.4-0.1,8,0c2.7,0.1,5.5,0.2,8.2,0.4c2.8,0.2,5.7,0.5,8.5,0.9c2.9,0.4,5.8,0.9,8.7,1.4c2.9,0.6,5.9,1.2,8.9,1.9
				c16.5,4.1,32.1,10.1,46.2,17.9c11.3,6.2,21.7,13.6,30.9,21.9c15.7,14.1,22.6,26.3,22.7,26.4L494,334.9z M157.5,261.5
				c-0.7,0-1.4,0-2.1,0c-2.7,0-5.4,0.1-8.1,0.3c-2.8,0.2-5.6,0.4-8.4,0.8c-2.9,0.3-5.7,0.8-8.6,1.3c-2.9,0.5-5.9,1.1-8.8,1.8
				c-0.6,0.2-1.3,0.3-1.9,0.5c-37.3,9.3-62.3,26.7-76.7,39.6c-10.6,9.5-17.1,18.1-20.3,22.7c4.2-4,12.8-11.8,25.3-20.2
				c16.9-11.4,44.5-26.4,80.7-33.7c14.9-3,30.3-3.2,46-0.6c12.8,2.1,25.8,6.1,38.6,11.9c22.4,10.1,37.8,22.6,41.9,26.2
				c0.4,0.4,1,0.4,1.4,0c4.2-3.6,19.5-16.1,41.9-26.2c12.8-5.8,25.8-9.8,38.6-11.9c15.6-2.6,31.1-2.4,46,0.6
				c36.2,7.3,63.9,22.4,80.7,33.7c12.5,8.5,21.1,16.2,25.3,20.2c-3.2-4.6-9.7-13.2-20.3-22.7c-14.4-13-39.4-30.4-76.6-39.6
				c-2.9-0.7-5.9-1.4-8.8-1.9s-5.8-1-8.6-1.4c-2.8-0.4-5.6-0.7-8.4-0.9c-2.7-0.2-5.5-0.4-8.2-0.4c-2.6-0.1-5.3-0.1-8,0
				c-2.6,0.1-5.2,0.2-7.7,0.4c-2.5,0.2-5,0.4-7.5,0.8c-2.4,0.3-4.8,0.7-7.2,1.1c-2.3,0.4-4.6,0.9-6.9,1.4c-2.2,0.5-4.5,1-6.7,1.6
				c-2.1,0.6-4.3,1.2-6.4,1.8c-2,0.6-4.1,1.3-6.1,2c-1.9,0.7-3.9,1.4-5.7,2.1c-1.8,0.7-3.6,1.4-5.4,2.2c-1.7,0.7-3.4,1.5-5.1,2.3
				c-1.6,0.7-3.2,1.5-4.7,2.3c-1.5,0.7-2.9,1.5-4.4,2.3c-1.3,0.7-2.7,1.5-4,2.2c-1.2,0.7-2.4,1.4-3.6,2.2c-1.1,0.7-2.2,1.4-3.2,2
				s-1.9,1.3-2.8,1.9c-0.8,0.6-1.6,1.1-2.4,1.7c-0.7,0.5-1.3,1-1.9,1.5c-0.5,0.4-1,0.8-1.5,1.2c-0.1,0.1-0.2,0.2-0.3,0.3
				c-0.4,0.4-1.1,0.4-1.6,0l0.3-0.3l-0.3,0.3c-0.5-0.4-1-0.8-1.5-1.2c-0.6-0.5-1.2-0.9-1.8-1.4c-0.7-0.5-1.5-1.1-2.3-1.6
				c-0.9-0.6-1.8-1.2-2.7-1.8c-1-0.7-2.1-1.3-3.1-2c-1.1-0.7-2.3-1.4-3.5-2.1c-1.3-0.8-2.6-1.5-3.9-2.2c-1.4-0.8-2.8-1.5-4.3-2.3
				s-3.1-1.6-4.6-2.3c-1.6-0.8-3.3-1.6-5-2.3c-1.8-0.8-3.6-1.5-5.3-2.2c-1.9-0.7-3.8-1.5-5.7-2.1c-2-0.7-4-1.4-6-2
				c-2.1-0.7-4.2-1.3-6.3-1.9c-2.2-0.6-4.4-1.1-6.6-1.7c-2.3-0.5-4.6-1-6.9-1.4c-2.4-0.4-4.8-0.8-7.2-1.1c-2.5-0.3-5-0.6-7.4-0.8
				c-2.5-0.2-5.1-0.4-7.7-0.5C161.4,261.5,159.5,261.5,157.5,261.5z"/>
		</g>
		<g>
			<path class="st2" d="M139.5,235.8c0,2.3,0.1,4,0.2,5.2l-2.1,0.9v-2.4H131v2.7l-2.1,0.9c0.1-2.7,0.2-6.1,0.2-10.2
				c0-4.2-0.1-7.5-0.2-10.1l2.1,1.1h6.4l1.1-1.2l2.3,1.7l-1.2,0.8v10.6H139.5z M131,224.7v6.5h6.6v-6.5H131z M131,232v6.8h6.6V232
				H131z M134,250.7c2.4-1.3,4.5-2.8,6-4.4c1.6-1.6,2.7-3.2,3.3-4.9s0.9-4.5,1-8.6c0.1-4,0-8.1-0.1-12.1l2.1,1.3h8.4l1.2-1.3
				l2.4,1.6l-1.2,0.8v24.1c0.1,1.6-1.1,2.8-3.5,3.6c0-1.2-1.7-2.3-5.2-3.1V247c2.5,0.4,4.3,0.6,5.3,0.6s1.5-0.5,1.5-1.4v-8.1h-9
				c-0.3,3.2-1.6,5.8-3.9,7.9c-2.3,2.1-5,3.7-8,5L134,250.7z M146.4,230.6c0,2.4-0.1,4.6-0.2,6.8h9v-6.8H146.4z M146.4,222.8v7h8.9
				v-7H146.4z"/>
		</g>
		<g>
			<path class="st2" d="M358.4,219.6l2.6,2c-1,0.3-2.3,1.2-3.8,2.7s-2.8,2.7-3.7,3.5l10.8-0.3c-0.9-1.5-1.7-2.7-2.4-3.4l0.3-0.4
				c1.6,0.9,2.8,1.7,3.7,2.5c0.9,0.8,1.3,1.5,1.2,2.1c0,0.7-0.3,1.2-0.9,1.7c-0.5,0.4-0.9,0.4-1-0.1s-0.4-1.1-0.6-1.8
				c-1.6,0.2-3.8,0.4-6.5,0.7s-4.5,0.7-5.4,1.3l-1.4-2.5c0.9,0,2.2-0.9,3.8-2.8C356.6,222.9,357.8,221.2,358.4,219.6z M353,250.6
				c0.1-1.9,0.1-5.3,0.1-10.2c0-5,0-8.1-0.1-9.4l2.1,1.1h7.3l1.1-1.3l2.1,1.7l-1.1,0.9v13.5c0.2,1.7-0.8,2.9-2.8,3.7
				c-0.1-1.2-1.3-2-3.7-2.7v-0.5c1.8,0.2,3,0.3,3.7,0.3s1-0.5,1-1.5v-4.6h-7.5v8L353,250.6z M355.2,232.9v3.3h7.5v-3.3H355.2z
				 M355.2,237v3.8h7.5V237H355.2z M368.9,247.2c0-6.9,0-10.9-0.1-11.9l3.3,1.5l-1.3,0.9v4.2c3.3-1.7,5.8-3.6,7.4-5.7l2.3,2.5h-1.3
				c-3.1,1.6-5.9,2.9-8.4,4v3.3c0,1.4,0.7,2.1,2.1,2h5.5c1-0.1,1.6-0.7,1.6-1.8s0.1-2.3,0.2-3.6h0.6c0.1,1.5,0.3,2.7,0.5,3.5
				s0.7,1.3,1.5,1.5c-0.5,1.2-1.9,1.9-4.3,2H372C370.1,249.6,369,248.8,368.9,247.2z M369.4,231.1c0-6.2,0-9.8-0.1-10.7l3.3,1.3
				l-1.3,1.1v4.6c2.9-1.4,5.1-3,6.5-4.8l2.1,2.3l-1.3,0.1c-2.7,1.3-5.2,2.3-7.4,3.1v2.5c0,1,0.7,1.5,2.1,1.5h4.8
				c0.9-0.1,1.5-0.6,1.6-1.4c0.1-0.8,0.1-2,0.1-3.4h0.6c0.1,1.1,0.2,2,0.4,2.9c0.2,0.8,0.7,1.4,1.6,1.7c-0.6,1.2-1.9,1.7-4.1,1.7h-6
				C370.4,233.6,369.4,232.8,369.4,231.1z"/>
		</g>
		<g>
			<g>
				<path class="st2" d="M171.5,190.7c0.4,0.2,0.7,0.2,1.1-0.1c0.4-0.3,0.8-0.7,1.2-1.3l0.6-0.9l0.8,0.5l-5.9,9.4l-0.8-0.5l0.7-1.1
					c0.4-0.7,0.7-1.3,0.7-1.7s-0.2-0.7-0.5-0.9l-17.3-10.8l-0.3,0.4l14.6,19.2l-0.8,1.3l-22.8-5.1l-0.3,0.4l16.9,10.6
					c0.4,0.2,0.7,0.2,1.1,0c0.4-0.2,0.8-0.7,1.1-1.2l0.4-0.6l0.8,0.5l-4,6.4l-0.8-0.5l0.4-0.6c0.4-0.7,0.7-1.3,0.7-1.7
					s-0.2-0.7-0.5-0.9l-18.8-11.8c-0.3-0.2-0.7-0.3-1-0.1s-0.7,0.6-1.1,1.2l-0.5,0.8l-0.8-0.5l3.7-6l20.9,4.7l0.3-0.4L148.1,182
					l4.5-7.3l0.8,0.5l-0.6,0.9c-0.4,0.6-0.6,1.2-0.7,1.7c-0.1,0.5,0.1,0.8,0.4,1.1L171.5,190.7z"/>
			</g>
		</g>
		<g>
			<g>
				<path class="st2" d="M186.1,150.5l-0.5-0.8l15.6-9.1l4.3,4.1l-0.6,0.7c-1.6-0.9-3.1-1.9-4.4-2c-1.3-0.1-2.5,0.1-3.7,0.8
					l-4.3,2.5c-0.4,0.2-0.7,0.5-0.9,0.8s-0.1,0.7,0.1,1l5.8,9.3l4-2.6c1-0.6,1.7-1.2,1.9-2c0.2-0.7,0.1-1.5-0.5-2.4l-0.5-0.8
					l0.9-0.5l4.5,7.8l-0.9,0.5l-0.3-0.5c-0.5-1-1.2-1.6-2-1.8c-0.8-0.3-1.7-0.1-2.7,0.5l-4,2.6l4.8,9.2c0.2,0.4,0.5,0.6,0.8,0.6
					c0.4,0,0.7-0.1,1.2-0.3l4-2.3c1.5-0.9,3.6-2.5,4.3-3.9c0.6-1.4,0.3-3.1,0-5l0.9-0.2l1.8,6.2l-17.1,9.9l-0.5-0.8l0.9-0.5
					c0.5-0.3,0.8-0.6,0.9-0.8c0.1-0.3,0-0.6-0.2-1l-11-19.3c-0.2-0.4-0.5-0.6-0.8-0.6c-0.3-0.1-0.7,0.1-1.2,0.3L186.1,150.5z"/>
			</g>
		</g>
		<g>
			<g>
				<path class="st2" d="M263.7,133.2l0.1-0.9l19.1,1.9l1.1,5.5l-1,0.2c-0.9-1.7-1.3-2.9-2.4-3.8c-1.1-0.9-2.3-1.4-3.7-1.5l-5.3-0.5
					c-0.5-0.1-0.9,0-1.3,0.2c-0.3,0.2-0.5,0.5-0.6,0.9l-1,9.6l5,0.6c1.3,0.1,2.2,0,2.8-0.5c0.6-0.5,1-1.2,1.1-2.2l0.1-0.9l1.1,0.1
					l-0.9,9l-1.1-0.1l0.1-0.6c0.1-1.1-0.1-2-0.6-2.6c-0.5-0.7-1.4-1-2.7-1.2l-5-0.6l-1.2,11.6c0,0.4,0.1,0.7,0.4,1
					c0.3,0.2,0.7,0.4,1.2,0.4l4.9,0.5c1.9,0.2,3.6-0.1,5-0.8s2.1-2.5,3.1-4.3l0.9,0.4l-2.2,6.3l-19.7-2l0.1-0.9l1.1,0.1
					c0.6,0.1,1,0,1.3-0.2s0.4-0.5,0.5-0.9l2.3-22.1c0-0.4-0.1-0.7-0.3-1c-0.2-0.2-0.7-0.4-1.3-0.4L263.7,133.2z"/>
			</g>
		</g>
		<g>
			<g>
				<path class="st2" d="M244.9,150.6l0.5-0.1l-2-17c-0.1-0.4-0.3-0.7-0.6-0.9s-0.9-0.2-1.6-0.1l-1.8,0.3l-0.2-0.9l9-1.4l0.2,0.9
					l-1.8,0.3c-0.6,0.1-1.1,0.3-1.4,0.5c-0.3,0.3-0.5,0.6-0.4,1l3,23.6l-1.4,0.2h0.1l-21.1-18.7l-0.5,0.1l3.5,20.2
					c0.1,0.4,0.3,0.7,0.7,0.8s0.9,0.2,1.5,0.1l1.8-0.3l0.2,0.9l-9,1.4l-0.2-0.9l1.8-0.3c0.7-0.1,1.3-0.3,1.5-0.6
					c0.3-0.3,0.4-0.6,0.3-1l-3.7-21.5c-0.1-0.4-0.3-0.7-0.7-0.8c-0.4-0.2-1-0.2-1.8,0l-1.5,0.2l-0.2-0.9l7.6-1.6L244.9,150.6z"/>
			</g>
		</g>
		<g>
			<g>
				<path class="st2" d="M317.6,154.8c-1.1,1.8-2.5,2.8-4.3,3c-1.8,0.3-3.5,0-5.1-0.7l1.3,13.3c0,0.5,0.1,0.9,0.3,1.2
					c0.2,0.3,0.4,0.5,0.8,0.7l1,0.6l-0.5,0.8l-4.5-2.8l-1.1-15.3l-3.4-2.1l-5.8,9.6c-0.2,0.4-0.3,0.7-0.1,1c0.1,0.3,0.4,0.6,0.8,0.9
					l0.9,0.6l-0.5,0.8l-7.6-4.8l0.5-0.8l0.9,0.6c0.5,0.3,0.9,0.4,1.2,0.4c0.3-0.1,0.6-0.3,0.8-0.6l11.1-18.5c0.2-0.4,0.3-0.7,0.2-1
					c-0.1-0.3-0.4-0.6-0.9-0.9l-0.9-0.6l0.5-0.8l10.1,5.6c2.5,1.5,4.1,3.1,4.9,4.8C318.9,151.3,318.7,153,317.6,154.8z M302.5,152.7
					l3.5,2.1c1.6,1,3.2,1.4,4.7,1.2c1.5-0.1,2.8-1.1,3.9-2.7c0.9-1.5,1.2-3,0.7-4.4c-0.4-1.4-1.7-2.7-3.7-4l-1.7-1.1
					c-0.4-0.3-0.8-0.4-1.2-0.4c-0.4,0-0.7,0.2-0.9,0.6L302.5,152.7z"/>
			</g>
		</g>
		<g>
			<g>
				<path class="st2" d="M346,166.7c-1.5-1.5-4.1-2.6-6.9-2.4c-2.8,0.2-5.7,1.9-8.9,5c-2.1,2.1-3.6,4.5-4.5,7.3s-0.3,5.3,1.9,7.5
					c1.1,1.1,2.1,1.8,3.1,2.2c1,0.3,1.9,0.2,2.6-0.4l3.8-3.8c0.5-0.4,0.6-0.9,0.6-1.4c-0.1-0.5-0.4-1.1-1-1.7l-0.9-0.9l0.7-0.7
					l7.9,7.6l-0.7,0.7l-0.7-0.8c-0.5-0.5-1-0.8-1.5-0.9c-0.5-0.1-1,0.1-1.3,0.4l-5.6,5.4c-0.1-0.3-0.2-0.5-0.4-0.7
					c-0.1-0.2-0.3-0.4-0.5-0.6c-0.2-0.2-0.4-0.4-0.6-0.6c-0.2-0.2-1-0.3-1.4-0.3c-1-0.2-1.8-0.6-2.6-1.1c-0.8-0.5-1.6-1.2-2.4-2
					c-3-3-4.2-6.2-3.6-9.5s2-6.2,4.4-8.5c2.7-2.7,5.9-4.2,9.5-4.4c3.6-0.3,7.1,1.3,9.5,3.9c0.6,0.6,1.2,1.4,1.7,2.4
					c0.6,1,0.9,2.6,1.1,2.8c0.3,0.3,0.6,0.5,1.1,0.7c0.4,0.2,0.8,0.3,1.2,0.3l-4.7,5.2l-1.1-0.7c1-2.2,2.4-4.1,2.2-5.7
					C348,169.4,347.2,168,346,166.7z"/>
			</g>
		</g>
		<g>
			<g>
				<path class="st2" d="M370.5,201c0.6-0.2,1-0.5,1-1c0.1-0.5-0.1-1.1-0.6-1.9l-0.2-0.4l0.8-0.5l4.3,7.1l-0.8,0.5l-0.3-0.5
					c-0.4-0.6-0.8-1-1.4-1.3s-1.3-0.4-2.2-0.4l-14.8-0.1l-7.7,4.7c-0.4,0.2-0.5,0.5-0.5,0.9s0.1,0.8,0.4,1.3l1,1.6l-0.8,0.5
					l-5.6-9.2l0.8-0.5l1,1.6c0.4,0.6,0.7,1,1,1.1s0.7,0.1,1-0.1l7.4-3.7l7.9-13.3c0.3-0.5,0.5-1,0.5-1.5s-0.1-1.1-0.5-1.7l-0.2-0.4
					l0.8-0.5l4.8,7.9l-0.8,0.5l-0.6-1.1c-0.4-0.7-0.8-1-1.2-1c-0.3,0-0.7,0.3-1.1,0.9l-6,9.9l0.2,0.4L370.5,201z"/>
			</g>
		</g>
		<g>
			<g>
				<path class="st2" d="M176.5,177.6c-0.4,0-0.8-0.2-1.1-0.5c-0.5-0.6-0.5-1.5,0.2-2.1l6.8-5.8c0.6-0.5,1.5-0.5,2.1,0.2
					c0.5,0.6,0.5,1.5-0.2,2.1l-6.8,5.8C177.2,177.5,176.9,177.6,176.5,177.6z"/>
			</g>
		</g>
	</g>
</g>
</svg>
