<?xml version="1.0" encoding="utf-8"?>
<!-- Generator: Adobe Illustrator 22.0.0, SVG Export Plug-In . SVG Version: 6.00 Build 0)  -->
<svg version="1.1" id="图层_1" xmlns="http://www.w3.org/2000/svg" xmlns:xlink="http://www.w3.org/1999/xlink" x="0px" y="0px"
	 viewBox="0 0 531 531" style="enable-background:new 0 0 531 531;" xml:space="preserve">
<style type="text/css">
	.st0{fill:#CE281E;}
	.st1{fill:#CA151D;}
	.st2{fill:#184778;}
	.st3{fill:#013E71;}
	.st4{fill:#C8161E;}
	.st5{fill:#0A0403;}
</style>
<g>
	<g>
		<path class="st0" d="M366.7,269.8c0,4.9-0.5,9.6-1.4,14.3c-0.9,4.7-2.3,2.8-4.1,7.2c-5.5,0.7-10.8,1.7-16,2.9
			c2.5-4.8,4.5-3.5,5.7-8.8c1.1-4.7,1.7-9.6,1.7-14.7c0-40.8-39.1-73.8-87.3-73.8S178,230,178,270.8c0,5.1,0.6,10,1.8,14.8
			c1.3,5.4,3.3,4,5.9,8.9c-5.4-1.3-10.9-2.4-16.6-3.1c-1.8-4.4-3.2-2.5-4.1-7.3c-0.9-4.7-1.4-9.4-1.4-14.3
			c0-47.5,45.5-85.9,101.6-85.9S366.7,222.4,366.7,269.8z"/>
		<path class="st1" d="M186.6,295.2l-1-0.3c-5.5-1.3-11.1-2.4-16.6-3.1l-0.3,0l-0.1-0.3c-0.8-1.9-1.5-2.6-2.1-3.2
			c-0.8-0.8-1.5-1.5-2.1-4.2c-0.9-4.7-1.4-9.6-1.4-14.4c0-23.1,10.6-44.8,29.9-61.1c19.3-16.3,44.9-25.3,72.2-25.3s52.9,9,72.2,25.3
			c19.3,16.3,29.9,38,29.9,61.1c0,4.8-0.5,9.6-1.4,14.4c-0.5,2.7-1.2,3.4-2.1,4.2c-0.6,0.6-1.3,1.2-2.1,3.2l-0.1,0.3l-0.3,0
			c-5.3,0.7-10.6,1.6-15.9,2.9l-1,0.2l0.5-0.9c1.1-2.2,2.2-3.1,3.1-4c1.1-1,2-1.8,2.6-4.7c1.1-4.8,1.7-9.7,1.7-14.6
			c0-40.5-39-73.4-86.8-73.4s-86.8,32.9-86.8,73.4c0,5,0.6,9.9,1.7,14.7c0.7,2.9,1.6,3.7,2.7,4.8c0.9,0.9,2,1.8,3.1,4L186.6,295.2z
			 M169.3,291c5.1,0.7,10.2,1.6,15.3,2.8c-0.9-1.4-1.7-2.1-2.4-2.8c-1.2-1.1-2.2-2.1-3-5.3c-1.2-4.9-1.8-9.9-1.8-14.9
			c0-19.9,9.1-38.5,25.7-52.6c16.6-14,38.6-21.7,62.1-21.7c23.4,0,45.5,7.7,62.1,21.7c16.6,14,25.7,32.7,25.7,52.6
			c0,5-0.6,10-1.7,14.8c-0.7,3.1-1.7,4.1-2.9,5.2c-0.7,0.7-1.5,1.4-2.3,2.8c4.9-1.1,9.8-2,14.7-2.6c0.8-1.9,1.6-2.6,2.2-3.2
			c0.7-0.7,1.3-1.2,1.8-3.6c0.9-4.7,1.4-9.4,1.4-14.2c0-47.1-45.4-85.4-101.1-85.4c-55.8,0-101.1,38.3-101.1,85.4
			c0,4.8,0.5,9.5,1.4,14.2c0.5,2.4,1.1,3,1.8,3.7C167.8,288.3,168.5,289,169.3,291z"/>
	</g>
	<g>
		<polygon points="388.8,285.5 388.8,285.5 388.8,285.2 388.8,285.2 		"/>
	</g>
	<g>
		<path class="st2" d="M264.8,321.4c-0.5-0.5-1.1-0.9-1.6-1.4c-0.7-0.5-1.4-1.1-2.1-1.6c-0.8-0.6-1.7-1.2-2.5-1.8
			c-1-0.7-2-1.4-3-2.1c-1.1-0.8-2.3-1.5-3.5-2.2c-1.3-0.8-2.6-1.6-3.9-2.4c-1.4-0.8-2.9-1.7-4.3-2.5c-1.6-0.9-3.2-1.7-4.8-2.5
			c-1.7-0.9-3.4-1.7-5.2-2.6c-1.8-0.9-3.7-1.7-5.6-2.6c-2-0.9-4-1.7-5.9-2.5c-2.1-0.8-4.2-1.6-6.3-2.4c-2.2-0.8-4.4-1.5-6.7-2.2
			c-2.3-0.7-4.7-1.4-7-2.1c-2.4-0.7-4.9-1.3-7.4-1.8c-2.5-0.6-5.1-1.1-7.7-1.6c-2.6-0.5-5.3-0.9-8-1.3c-2.7-0.4-5.5-0.7-8.3-0.9
			c-2.8-0.2-5.7-0.4-8.6-0.5c-2.9-0.1-5.9-0.1-8.8-0.1c-3,0-6.1,0.2-9.1,0.4c-3.1,0.2-6.2,0.5-9.3,0.9c-3.2,0.4-6.4,0.9-9.6,1.4
			c-3.3,0.6-6.5,1.3-9.8,2c-0.7,0.2-1.4,0.3-2.1,0.5C33.6,309.6,3.4,362.9,3.4,362.9s43.1-47.4,120.7-63.1
			c71.7-14.4,131.4,34.1,140.1,41.6c0.6,0.5,1.6,0.5,2.2,0c8.7-7.5,68.5-56.1,140.1-41.6c77.6,15.6,120.7,63.1,120.7,63.1
			s-30.2-53.4-110.5-73.3c-3.2-0.8-6.5-1.5-9.8-2.1c-3.2-0.6-6.4-1.1-9.6-1.5c-3.1-0.4-6.2-0.7-9.4-1c-3-0.2-6.1-0.4-9.1-0.5
			c-3-0.1-5.9-0.1-8.9,0c-2.9,0.1-5.7,0.2-8.6,0.4c-2.8,0.2-5.6,0.5-8.3,0.8c-2.7,0.3-5.4,0.7-8,1.2c-2.6,0.4-5.2,0.9-7.7,1.5
			c-2.5,0.5-5,1.1-7.4,1.8c-2.4,0.6-4.7,1.3-7.1,2c-2.3,0.7-4.5,1.4-6.7,2.2c-2.1,0.7-4.3,1.5-6.4,2.4c-2,0.8-4,1.6-6,2.5
			c-1.9,0.8-3.8,1.7-5.6,2.5c-1.8,0.8-3.5,1.7-5.3,2.6c-1.6,0.8-3.2,1.7-4.9,2.6c-1.5,0.8-3,1.6-4.4,2.5c-1.3,0.8-2.7,1.6-4,2.4
			c-1.2,0.7-2.4,1.5-3.6,2.3c-1,0.7-2.1,1.4-3.1,2.1c-0.9,0.6-1.8,1.2-2.6,1.9c-0.7,0.5-1.4,1.1-2.2,1.6c-0.6,0.4-1.1,0.9-1.7,1.3
			c-0.1,0.1-0.3,0.2-0.4,0.3C265.6,321.7,265.1,321.7,264.8,321.4L264.8,321.4z"/>
		<path class="st3" d="M529.8,366.4l-2.9-3.2c-0.1-0.1-11-12-31.2-25.6c-18.6-12.6-49.3-29.2-89.3-37.3
			c-30.1-6.1-61.5-1.8-93.4,12.5c-24.8,11.2-41.7,25-46.3,29c-0.8,0.7-2,0.7-2.8,0c-4.6-4-21.6-17.8-46.3-29
			c-31.9-14.4-63.3-18.6-93.4-12.5c-40,8.1-70.6,24.7-89.3,37.3c-20.2,13.6-31.1,25.5-31.2,25.6l-2.9,3.2l2.1-3.7
			c0.1-0.1,7.8-13.6,25.2-29.3c10.2-9.2,21.8-17.4,34.3-24.3c15.7-8.7,32.9-15.4,51.3-19.9c0.7-0.2,1.4-0.3,2.1-0.5
			c3.2-0.8,6.5-1.4,9.8-2c3.2-0.6,6.4-1,9.6-1.4c3.1-0.4,6.2-0.7,9.3-0.9c3-0.2,6.1-0.3,9.1-0.4c2.9,0,5.9,0,8.8,0.1
			c2.8,0.1,5.7,0.3,8.6,0.5c2.8,0.2,5.5,0.6,8.3,0.9c2.7,0.4,5.3,0.8,8,1.3c2.6,0.5,5.1,1,7.7,1.6c2.5,0.6,4.9,1.2,7.4,1.8
			c2.3,0.6,4.7,1.3,7,2.1c2.2,0.7,4.5,1.5,6.7,2.3c2.1,0.8,4.2,1.6,6.3,2.4c2,0.8,4,1.6,6,2.5c1.9,0.8,3.7,1.7,5.6,2.6
			c1.7,0.8,3.5,1.7,5.2,2.6c1.6,0.8,3.2,1.7,4.8,2.6c1.5,0.8,2.9,1.7,4.4,2.5c1.3,0.8,2.6,1.6,3.9,2.4c1.2,0.7,2.4,1.5,3.5,2.2
			c1,0.7,2,1.4,3,2.1c0.9,0.6,1.7,1.2,2.5,1.8c0.7,0.6,1.4,1.1,2.1,1.6c0.5,0.4,1.1,0.9,1.7,1.4l0,0c0.1,0.1,0.3,0.1,0.4,0
			c0.1-0.1,0.3-0.2,0.4-0.4c0.5-0.4,1.1-0.9,1.7-1.3c0.7-0.5,1.4-1.1,2.2-1.6c0.8-0.6,1.7-1.3,2.7-1.9c1-0.7,2-1.4,3.1-2.1
			c1.2-0.8,2.4-1.5,3.6-2.3c1.3-0.8,2.7-1.6,4-2.4c1.5-0.9,3-1.7,4.4-2.5c1.6-0.9,3.2-1.7,4.9-2.6c1.7-0.9,3.5-1.7,5.3-2.6
			c1.9-0.9,3.8-1.7,5.7-2.5c2-0.9,4-1.7,6-2.5c2.1-0.8,4.3-1.6,6.4-2.4c2.2-0.8,4.5-1.5,6.8-2.2c2.4-0.7,4.7-1.4,7.1-2
			c2.5-0.6,5-1.2,7.4-1.8c2.6-0.6,5.2-1.1,7.8-1.5c2.7-0.5,5.4-0.9,8.1-1.2c2.8-0.3,5.6-0.6,8.4-0.8c2.9-0.2,5.8-0.4,8.6-0.4
			c3-0.1,5.9-0.1,8.9,0c3,0.1,6.1,0.2,9.2,0.5c3.1,0.2,6.3,0.6,9.4,1c3.2,0.4,6.4,0.9,9.6,1.6c3.3,0.6,6.6,1.3,9.8,2.2
			c18.4,4.6,35.6,11.3,51.3,19.9c12.5,6.9,24.1,15.1,34.3,24.3c17.4,15.7,25.2,29.2,25.2,29.3L529.8,366.4z M156.1,284.9
			c-0.8,0-1.6,0-2.3,0c-3,0-6,0.2-9.1,0.4c-3.1,0.2-6.2,0.5-9.3,0.9c-3.2,0.4-6.4,0.9-9.5,1.4c-3.2,0.6-6.5,1.3-9.7,2
			c-0.7,0.2-1.4,0.3-2.1,0.5c-41.4,10.3-69.2,29.6-85.2,44c-11.8,10.6-19,20.1-22.5,25.2c4.6-4.5,14.2-13.1,28.1-22.4
			c18.7-12.6,49.5-29.4,89.7-37.5c16.5-3.3,33.7-3.5,51.1-0.6c14.2,2.4,28.6,6.8,42.9,13.3c24.9,11.2,41.9,25.1,46.6,29.1
			c0.5,0.4,1.1,0.4,1.6,0c4.6-4,21.7-17.9,46.6-29.1c14.2-6.4,28.7-10.9,42.9-13.3c17.4-2.9,34.6-2.7,51.1,0.6
			c40.2,8.1,70.9,24.8,89.7,37.5c13.9,9.4,23.4,18,28.1,22.4c-3.5-5.1-10.8-14.6-22.6-25.2c-16-14.4-43.8-33.7-85.1-44
			c-3.2-0.8-6.5-1.5-9.8-2.1c-3.2-0.6-6.4-1.1-9.6-1.5c-3.1-0.4-6.2-0.7-9.3-1c-3-0.2-6.1-0.4-9.1-0.5c-2.9-0.1-5.9-0.1-8.8,0
			c-2.8,0.1-5.7,0.2-8.6,0.4c-2.8,0.2-5.6,0.5-8.3,0.8c-2.7,0.3-5.4,0.7-8,1.2c-2.6,0.4-5.2,0.9-7.7,1.5c-2.5,0.5-5,1.1-7.4,1.8
			c-2.4,0.6-4.7,1.3-7.1,2c-2.2,0.7-4.5,1.4-6.7,2.2c-2.1,0.7-4.3,1.5-6.4,2.4c-2,0.8-4,1.6-6,2.5c-1.9,0.8-3.8,1.7-5.6,2.5
			c-1.8,0.8-3.5,1.7-5.2,2.6c-1.6,0.8-3.3,1.7-4.8,2.5c-1.5,0.8-3,1.7-4.4,2.5c-1.3,0.8-2.7,1.6-4,2.4c-1.2,0.8-2.4,1.5-3.6,2.3
			c-1.1,0.7-2.1,1.4-3.1,2.1c-0.9,0.6-1.8,1.3-2.6,1.9c-0.8,0.6-1.5,1.1-2.2,1.6c-0.6,0.5-1.1,0.9-1.7,1.3c-0.1,0.1-0.3,0.2-0.4,0.3
			c-0.5,0.5-1.2,0.5-1.7,0l0.3-0.4l-0.3,0.4c-0.5-0.5-1.1-0.9-1.6-1.3c-0.6-0.5-1.3-1-2-1.6c-0.8-0.6-1.7-1.2-2.5-1.8
			c-1-0.7-2-1.4-3-2c-1.1-0.7-2.3-1.5-3.5-2.2c-1.3-0.8-2.6-1.6-3.9-2.4c-1.4-0.8-2.9-1.7-4.3-2.5c-1.6-0.9-3.2-1.7-4.8-2.5
			c-1.7-0.9-3.4-1.7-5.2-2.6c-1.8-0.9-3.7-1.7-5.6-2.5c-2-0.9-4-1.7-5.9-2.5c-2.1-0.8-4.2-1.6-6.3-2.4c-2.2-0.8-4.4-1.5-6.7-2.2
			c-2.3-0.7-4.7-1.4-7-2.1c-2.4-0.7-4.9-1.3-7.3-1.8c-2.5-0.6-5.1-1.1-7.7-1.6c-2.6-0.5-5.3-0.9-8-1.3c-2.7-0.4-5.5-0.7-8.2-0.9
			c-2.8-0.2-5.7-0.4-8.5-0.5C160.4,284.9,158.2,284.9,156.1,284.9z"/>
	</g>
	<g>
		<path class="st4" d="M136.1,256.4c0,2.6,0.1,4.5,0.2,5.7l-2.4,1v-2.7h-7.3v2.9l-2.4,1c0.1-2.9,0.2-6.7,0.2-11.3
			c0-4.6-0.1-8.4-0.2-11.2l2.4,1.2h7.1l1.2-1.3l2.5,1.9l-1.4,0.9V256.4z M126.6,244v7.2h7.3V244H126.6z M126.6,252.1v7.5h7.3v-7.5
			H126.6z M130,272.9c2.7-1.5,4.9-3.1,6.7-4.9c1.8-1.8,3-3.6,3.6-5.5c0.7-1.9,1-5,1.1-9.5c0.1-4.5,0-9-0.1-13.5l2.4,1.5h9.3l1.4-1.5
			l2.7,1.8l-1.4,0.9v26.8c0.1,1.8-1.2,3.1-3.9,4c0-1.4-1.9-2.5-5.8-3.4v-0.7c2.8,0.5,4.8,0.7,5.9,0.7c1.1-0.1,1.6-0.6,1.6-1.5v-9
			h-10c-0.3,3.5-1.8,6.5-4.3,8.8c-2.5,2.3-5.5,4.1-8.9,5.5L130,272.9z M143.7,250.7c0,2.7-0.1,5.2-0.2,7.5h10v-7.5H143.7z
			 M143.7,242v7.8h9.8V242H143.7z"/>
	</g>
	<g>
		<path class="st4" d="M379.2,238.4l2.8,2.2c-1.2,0.3-2.6,1.3-4.3,3c-1.7,1.7-3.1,3-4.1,3.9l12-0.3c-0.9-1.7-1.8-2.9-2.7-3.8
			l0.3-0.4c1.8,1,3.2,1.9,4.1,2.7c0.9,0.8,1.4,1.6,1.3,2.4c-0.1,0.7-0.4,1.4-0.9,1.8c-0.6,0.5-0.9,0.5-1.1-0.1
			c-0.2-0.5-0.4-1.2-0.7-2c-1.8,0.2-4.2,0.4-7.3,0.7c-3.1,0.3-5.1,0.8-6,1.5l-1.6-2.8c1.1,0,2.5-1,4.3-3.1
			C377.2,242.1,378.5,240.1,379.2,238.4z M373.2,272.9c0.1-2.1,0.2-5.8,0.2-11.3c0-5.5-0.1-9-0.2-10.5l2.4,1.2h8.1l1.3-1.5l2.4,1.9
			l-1.3,1v15c0.2,1.9-0.8,3.2-3.2,4.1c-0.1-1.3-1.5-2.3-4.1-2.9v-0.6c2,0.2,3.4,0.3,4.1,0.3c0.7,0,1.1-0.5,1.1-1.6v-5.2h-8.4v8.8
			L373.2,272.9z M375.6,253.1v3.7h8.4v-3.7H375.6z M375.6,257.7v4.3h8.4v-4.3H375.6z M390.9,269c0-7.7-0.1-12.1-0.2-13.3l3.6,1.6
			l-1.4,1v4.7c3.7-1.9,6.4-4,8.2-6.3l2.5,2.8h-1.4c-3.5,1.8-6.6,3.2-9.3,4.4v3.7c0,1.6,0.8,2.3,2.4,2.2h6.2c1.2-0.1,1.8-0.8,1.8-2
			c0.1-1.2,0.1-2.6,0.2-4.1h0.6c0.1,1.7,0.3,3,0.6,3.9c0.3,0.9,0.8,1.5,1.7,1.7c-0.5,1.4-2.1,2.1-4.7,2.2h-7.3
			C392.2,271.7,391,270.8,390.9,269z M391.4,251.2c0-6.9-0.1-10.9-0.2-11.9l3.6,1.5l-1.4,1.2v5.2c3.3-1.6,5.7-3.3,7.3-5.3l2.4,2.5
			l-1.4,0.1c-3.1,1.5-5.8,2.6-8.2,3.4v2.8c0,1.1,0.8,1.6,2.4,1.6h5.4c1.1-0.1,1.6-0.6,1.7-1.5c0.1-0.9,0.2-2.2,0.2-3.8h0.6
			c0.1,1.2,0.3,2.2,0.5,3.2c0.2,0.9,0.8,1.5,1.7,1.8c-0.6,1.3-2.2,1.9-4.6,1.9h-6.6C392.5,253.9,391.4,253.1,391.4,251.2z"/>
	</g>
	<g>
		<g>
			<path class="st5" d="M171.6,206.3c0.4,0.2,0.8,0.2,1.3-0.1c0.5-0.3,0.9-0.8,1.3-1.5l0.6-1l0.9,0.6l-6.5,10.4l-0.9-0.5l0.7-1.2
				c0.5-0.8,0.7-1.4,0.7-1.8c0-0.4-0.2-0.8-0.6-1L150,198l-0.3,0.5l16.2,21.3l-0.9,1.4l-25.4-5.7l-0.3,0.5l18.7,11.7
				c0.4,0.2,0.8,0.2,1.2,0c0.4-0.3,0.9-0.7,1.3-1.4l0.4-0.7l0.9,0.6l-4.4,7.1l-0.9-0.6l0.4-0.7c0.5-0.8,0.7-1.4,0.7-1.8
				c0-0.4-0.2-0.8-0.6-1l-20.9-13.1c-0.4-0.2-0.8-0.3-1.2-0.1c-0.4,0.2-0.8,0.6-1.3,1.3l-0.5,0.9l-0.9-0.5l4.1-6.6l23.2,5.2l0.3-0.5
				l-14.5-19.1l5.1-8.1l0.9,0.5l-0.6,1c-0.4,0.7-0.7,1.3-0.7,1.8c-0.1,0.5,0.1,0.9,0.5,1.2L171.6,206.3z"/>
		</g>
	</g>
	<g>
		<g>
			<path class="st5" d="M187.9,161.7l-0.5-0.9l17.4-10.2l4.8,4.6l-0.7,0.8c-1.8-1-3.4-2.1-4.8-2.2c-1.5-0.2-2.8,0.1-4.1,0.8
				l-4.8,2.7c-0.5,0.3-0.8,0.6-0.9,0.9c-0.2,0.4-0.1,0.7,0.1,1.1l6.4,10.4l4.4-2.8c1.1-0.7,1.8-1.4,2.1-2.2c0.2-0.8,0.1-1.7-0.5-2.7
				l-0.5-0.9l1-0.6l5,8.7l-1,0.6l-0.3-0.6c-0.6-1.1-1.3-1.7-2.2-2c-0.8-0.3-1.8-0.1-3,0.6l-4.4,2.8l5.3,10.2
				c0.2,0.4,0.5,0.6,0.9,0.7c0.4,0,0.8-0.1,1.3-0.3l4.5-2.6c1.7-1,4-2.8,4.7-4.3c0.7-1.5,0.4-3.4,0-5.6l1-0.2l2,6.9l-19,11l-0.5-0.9
				l1-0.5c0.5-0.3,0.9-0.6,1-0.9c0.1-0.3,0-0.7-0.2-1.1L191,161.5c-0.2-0.4-0.5-0.6-0.9-0.7c-0.3-0.1-0.8,0.1-1.4,0.4L187.9,161.7z"
				/>
		</g>
	</g>
	<g>
		<g>
			<path class="st5" d="M274,142.4l0.1-1l21.2,2.1l1.2,6.1l-1.1,0.2c-1-1.8-1.5-3.2-2.6-4.2c-1.2-1-2.5-1.6-4.1-1.7l-5.9-0.6
				c-0.6-0.1-1,0-1.4,0.2c-0.4,0.2-0.6,0.5-0.6,1l-1.1,10.6l5.6,0.6c1.4,0.1,2.5,0,3.1-0.5c0.7-0.5,1.1-1.3,1.2-2.5l0.1-1l1.3,0.1
				l-1,10l-1.3-0.1l0.1-0.7c0.1-1.2-0.1-2.2-0.7-2.9c-0.6-0.7-1.6-1.2-3-1.3l-5.6-0.6l-1.3,12.9c0,0.5,0.1,0.8,0.4,1.1
				c0.3,0.3,0.8,0.4,1.3,0.5l5.5,0.6c2.1,0.2,3.9-0.1,5.5-0.9c1.6-0.8,2.3-2.8,3.4-4.7l1,0.5l-2.4,7l-21.8-2.2l0.1-1l1.2,0.1
				c0.7,0.1,1.1,0,1.4-0.2c0.3-0.2,0.5-0.5,0.5-1l2.5-24.6c0-0.5-0.1-0.8-0.3-1.1c-0.3-0.3-0.7-0.4-1.4-0.5L274,142.4z"/>
		</g>
	</g>
	<g>
		<g>
			<path class="st5" d="M253.2,161.8l0.5-0.1l-2.2-18.9c-0.1-0.5-0.3-0.8-0.7-0.9c-0.4-0.2-1-0.2-1.8-0.1l-2,0.3l-0.2-1l10-1.6
				l0.2,1l-2,0.3c-0.7,0.1-1.2,0.3-1.6,0.6c-0.4,0.3-0.5,0.7-0.5,1.1l3.4,26.2l-1.5,0.2l0.1,0l-23.4-20.8l-0.5,0.1l3.9,22.5
				c0.1,0.5,0.3,0.8,0.8,0.9c0.5,0.2,1,0.2,1.7,0.1l2-0.3l0.2,1l-10,1.6l-0.2-1l2-0.3c0.8-0.1,1.4-0.3,1.7-0.6
				c0.3-0.3,0.4-0.6,0.3-1.1l-4.1-23.8c-0.1-0.5-0.3-0.8-0.7-0.9c-0.4-0.2-1.1-0.2-2,0l-1.7,0.3l-0.2-1l8.5-1.8L253.2,161.8z"/>
		</g>
	</g>
	<g>
		<g>
			<path class="st5" d="M333.9,166.4c-1.2,2-2.8,3.1-4.8,3.4c-2,0.3-3.9,0-5.7-0.8l1.4,14.7c0,0.5,0.1,1,0.3,1.3
				c0.2,0.3,0.5,0.6,0.9,0.8l1.1,0.7l-0.5,0.9l-5-3.1l-1.2-17l-3.8-2.3l-6.5,10.6c-0.2,0.4-0.3,0.8-0.1,1.1c0.2,0.4,0.5,0.7,0.9,1
				l1,0.6l-0.5,0.9l-8.4-5.4l0.5-0.9l1,0.6c0.6,0.3,1,0.5,1.4,0.4c0.3-0.1,0.6-0.3,0.9-0.7l12.3-20.5c0.2-0.4,0.3-0.8,0.2-1.1
				c-0.1-0.3-0.4-0.7-1-1l-1-0.6l0.5-0.9l11.2,6.2c2.7,1.7,4.5,3.4,5.4,5.3C335.3,162.5,335.1,164.4,333.9,166.4z M317.2,164
				l3.9,2.4c1.8,1.1,3.5,1.5,5.2,1.4c1.7-0.2,3.1-1.2,4.3-3c1-1.7,1.3-3.3,0.8-4.9c-0.5-1.6-1.8-3.1-4.1-4.4l-1.9-1.2
				c-0.5-0.3-0.9-0.4-1.3-0.4c-0.4,0-0.7,0.2-1,0.6L317.2,164z"/>
		</g>
	</g>
	<g>
		<g>
			<path class="st5" d="M365.4,179.6c-1.6-1.7-4.6-2.9-7.6-2.7c-3.1,0.3-6.4,2.1-9.9,5.5c-2.3,2.3-4,5-5.1,8.1
				c-1,3.1-0.3,5.9,2.1,8.4c1.2,1.2,2.4,2,3.4,2.4c1.1,0.4,2.1,0.2,2.9-0.4l4.3-4.2c0.5-0.5,0.7-1,0.6-1.6c-0.1-0.6-0.4-1.2-1.1-1.9
				l-1-1l0.7-0.7l8.8,8.4l-0.7,0.7l-0.8-0.8c-0.6-0.6-1.1-0.9-1.7-1c-0.6-0.1-1.1,0.1-1.5,0.5l-6.2,6c-0.1-0.3-0.3-0.6-0.4-0.8
				c-0.1-0.2-0.3-0.4-0.5-0.6c-0.2-0.2-0.5-0.4-0.7-0.6c-0.3-0.2-1.1-0.3-1.5-0.4c-1.1-0.3-2-0.7-2.9-1.3c-0.9-0.6-1.8-1.3-2.6-2.2
				c-3.3-3.4-4.6-6.9-4-10.6c0.6-3.7,2.3-6.8,4.9-9.4c3-3,6.6-4.6,10.5-4.9c4-0.3,7.9,1.5,10.6,4.3c0.7,0.7,1.3,1.6,1.9,2.7
				c0.6,1.1,1,2.9,1.3,3.1c0.3,0.3,0.7,0.6,1.2,0.8c0.5,0.2,0.9,0.3,1.4,0.3l-5.2,5.8l-1.2-0.8c1.1-2.4,2.7-4.5,2.5-6.3
				C367.6,182.7,366.8,181,365.4,179.6z"/>
		</g>
	</g>
	<g>
		<g>
			<path class="st5" d="M392.7,217.8c0.7-0.2,1.1-0.6,1.2-1.1c0.1-0.5-0.1-1.2-0.7-2.1l-0.2-0.4l0.9-0.5l4.8,7.9l-0.9,0.5l-0.4-0.6
				c-0.4-0.7-0.9-1.2-1.6-1.5c-0.7-0.3-1.5-0.5-2.4-0.4l-16.4-0.1l-8.6,5.2c-0.4,0.2-0.6,0.6-0.6,1c0,0.4,0.2,0.9,0.5,1.5l1.1,1.8
				l-0.9,0.5l-6.2-10.2l0.9-0.5l1.1,1.8c0.4,0.7,0.8,1.1,1.1,1.2c0.4,0.1,0.7,0.1,1.1-0.1l8.2-4.1l8.8-14.8c0.3-0.6,0.5-1.1,0.6-1.7
				c0.1-0.6-0.1-1.2-0.5-1.9l-0.2-0.4l0.9-0.5l5.4,8.8l-0.9,0.5l-0.7-1.2c-0.5-0.8-0.9-1.2-1.3-1.1c-0.4,0-0.8,0.4-1.2,1l-6.6,11
				l0.3,0.4L392.7,217.8z"/>
		</g>
	</g>
	<g>
		<g>
			<path class="st5" d="M177.2,191.8c-0.5,0-0.9-0.2-1.2-0.6c-0.6-0.7-0.5-1.7,0.2-2.3l7.5-6.5c0.7-0.6,1.7-0.5,2.3,0.2
				c0.6,0.7,0.5,1.7-0.2,2.3l-7.5,6.5C178,191.7,177.6,191.8,177.2,191.8z"/>
		</g>
	</g>
</g>
</svg>
